<svg width="39" height="38" viewBox="0 0 39 38" fill="none" xmlns="http://www.w3.org/2000/svg">
<rect opacity="0.25" x="1.33984" y="0.75" width="36.3646" height="36.3646" rx="18.1823" stroke="white" stroke-width="1.5"/>
<path fill-rule="evenodd" clip-rule="evenodd" d="M16.1241 25.2429H13.2114V16.5049H16.1241V25.2429Z" fill="white"/>
<path fill-rule="evenodd" clip-rule="evenodd" d="M14.6591 14.5631H14.6425C13.7733 14.5631 13.2114 13.9155 13.2114 13.1062C13.2114 12.2798 13.7905 11.6504 14.6762 11.6504C15.5619 11.6504 16.1073 12.2798 16.1241 13.1062C16.1241 13.9155 15.5619 14.5631 14.6591 14.5631Z" fill="white"/>
<path fill-rule="evenodd" clip-rule="evenodd" d="M26.8038 25.2426H23.9417V20.6752C23.9417 19.5279 23.5275 18.7451 22.4914 18.7451C21.7006 18.7451 21.2296 19.2728 21.0227 19.7826C20.9471 19.9653 20.9285 20.2198 20.9285 20.4749V25.2429H18.0659C18.0659 25.2429 18.1036 17.5067 18.0659 16.7056H20.9285V17.9148C21.3084 17.3335 21.9887 16.5049 23.5084 16.5049C25.3919 16.5049 26.8039 17.7253 26.8039 20.3476L26.8038 25.2426Z" fill="white"/>
</svg>
