<svg width="38" height="38" viewBox="0 0 38 38" fill="none" xmlns="http://www.w3.org/2000/svg">
<rect opacity="0.25" x="0.796875" y="0.75" width="36.3647" height="36.3646" rx="18.1823" stroke="white" stroke-width="1.5"/>
<path fill-rule="evenodd" clip-rule="evenodd" d="M18.797 16.4336L18.8243 16.8955L18.3683 16.839C16.7085 16.6221 15.2585 15.8868 14.0273 14.6519L13.4254 14.0391L13.2704 14.4916C12.9421 15.5003 13.1518 16.5656 13.8358 17.2821C14.2006 17.678 14.1185 17.7346 13.4892 17.4989C13.2704 17.4235 13.0788 17.3669 13.0606 17.3952C12.9968 17.4612 13.2156 18.3191 13.3889 18.6584C13.626 19.1298 14.1094 19.5917 14.6383 19.8651L15.0852 20.0819L14.5563 20.0914C14.0455 20.0914 14.0273 20.1008 14.082 20.2988C14.2644 20.9115 14.9849 21.562 15.7874 21.8448L16.3529 22.0428L15.8604 22.3445C15.1308 22.7781 14.2735 23.0232 13.4163 23.0421C13.0059 23.0515 12.6685 23.0892 12.6685 23.1175C12.6685 23.2118 13.7811 23.7397 14.4286 23.9471C16.3711 24.5599 18.6784 24.2959 20.4112 23.2495C21.6423 22.5047 22.8735 21.0247 23.448 19.5917C23.7581 18.8281 24.0682 17.4329 24.0682 16.7636C24.0682 16.3299 24.0956 16.2733 24.6063 15.7548C24.9072 15.4532 25.1899 15.1232 25.2446 15.0289C25.3358 14.8498 25.3267 14.8498 24.8616 15.0101C24.0864 15.2929 23.977 15.2552 24.36 14.831C24.6427 14.5293 24.9802 13.9825 24.9802 13.8223C24.9802 13.794 24.8434 13.8411 24.6883 13.926C24.5242 14.0202 24.1594 14.1616 23.8858 14.2465L23.3933 14.4067L22.9465 14.0956C22.7002 13.926 22.3537 13.7374 22.1713 13.6809C21.7062 13.5489 20.9948 13.5677 20.5753 13.7186C19.4353 14.1428 18.7149 15.2363 18.797 16.4336Z" fill="white"/>
</svg>
