<svg width="148" height="71" viewBox="0 0 148 71" fill="none" xmlns="http://www.w3.org/2000/svg">
<path d="M19.7501 29.2H27.9541C28.0568 29.2 28.1455 29.2373 28.2202 29.312C28.2948 29.3867 28.3321 29.4753 28.3321 29.578V31.832C28.3321 31.9347 28.2948 32.0233 28.2202 32.098C28.1455 32.1727 28.0568 32.21 27.9541 32.21H25.6301V38.622C25.6301 38.7247 25.5928 38.8133 25.5181 38.888C25.4435 38.9627 25.3548 39 25.2521 39H22.4521C22.3495 39 22.2608 38.9627 22.1861 38.888C22.1115 38.8133 22.0741 38.7247 22.0741 38.622V32.21H19.7501C19.6475 32.21 19.5588 32.1727 19.4841 32.098C19.4095 32.0233 19.3721 31.9347 19.3721 31.832V29.578C19.3721 29.4753 19.4095 29.3867 19.4841 29.312C19.5588 29.2373 19.6475 29.2 19.7501 29.2ZM41.4809 38.538C41.5089 38.594 41.5229 38.6547 41.5229 38.72C41.5229 38.7853 41.4902 38.8507 41.4249 38.916C41.3689 38.972 41.2989 39 41.2149 39H38.3449C38.0556 39 37.8549 38.874 37.7429 38.622L36.5389 35.948H35.9649V38.622C35.9649 38.7247 35.9276 38.8133 35.8529 38.888C35.7782 38.9627 35.6896 39 35.5869 39H32.8429C32.7402 39 32.6516 38.9627 32.5769 38.888C32.5022 38.8133 32.4649 38.7247 32.4649 38.622V29.578C32.4649 29.4753 32.5022 29.3867 32.5769 29.312C32.6516 29.2373 32.7402 29.2 32.8429 29.2H36.9869C38.3309 29.2 39.3809 29.5033 40.1369 30.11C40.8929 30.7073 41.2709 31.5707 41.2709 32.7C41.2709 33.82 40.7669 34.702 39.7589 35.346L41.4809 38.538ZM35.9649 31.804V33.288H36.9869C37.1922 33.288 37.3509 33.2227 37.4629 33.092C37.5749 32.952 37.6309 32.7793 37.6309 32.574C37.6309 32.3687 37.5749 32.1913 37.4629 32.042C37.3602 31.8833 37.2016 31.804 36.9869 31.804H35.9649ZM48.7215 29.2H51.7595C52.0955 29.2 52.3055 29.354 52.3895 29.662L55.5115 38.594C55.5208 38.622 55.5255 38.6687 55.5255 38.734C55.5255 38.79 55.4928 38.8507 55.4275 38.916C55.3715 38.972 55.3015 39 55.2175 39H52.6275C52.3475 39 52.1655 38.8833 52.0815 38.65L51.7455 37.726H48.7355L48.3995 38.65C48.3155 38.8833 48.1335 39 47.8535 39H45.2635C45.1795 39 45.1048 38.972 45.0395 38.916C44.9835 38.8507 44.9555 38.79 44.9555 38.734C44.9555 38.6687 44.9602 38.622 44.9695 38.594L48.0915 29.662C48.1755 29.354 48.3855 29.2 48.7215 29.2ZM49.4495 34.996H51.0315L50.2335 32.392L49.4495 34.996ZM65.5797 29.2H68.1837C68.2677 29.2 68.3377 29.2327 68.3937 29.298C68.459 29.354 68.4917 29.41 68.4917 29.466C68.4917 29.522 68.487 29.5687 68.4777 29.606L65.8457 38.538C65.7617 38.846 65.5517 39 65.2157 39H62.0237C61.6877 39 61.4777 38.846 61.3937 38.538L58.7617 29.606C58.7524 29.5687 58.7477 29.522 58.7477 29.466C58.7477 29.41 58.7757 29.354 58.8317 29.298C58.897 29.2327 58.9717 29.2 59.0557 29.2H61.6597C61.9957 29.2 62.2057 29.354 62.2897 29.662L63.6197 34.87L64.9497 29.662C65.0337 29.354 65.2437 29.2 65.5797 29.2ZM75.7659 36.27H80.0779C80.1806 36.27 80.2692 36.3073 80.3439 36.382C80.4186 36.4567 80.4559 36.5453 80.4559 36.648V38.622C80.4559 38.7247 80.4186 38.8133 80.3439 38.888C80.2692 38.9627 80.1806 39 80.0779 39H72.7839C72.6812 39 72.5926 38.9627 72.5179 38.888C72.4432 38.8133 72.4059 38.7247 72.4059 38.622V29.578C72.4059 29.4753 72.4432 29.3867 72.5179 29.312C72.5926 29.2373 72.6812 29.2 72.7839 29.2H79.9659C80.0686 29.2 80.1572 29.2373 80.2319 29.312C80.3066 29.3867 80.3439 29.4753 80.3439 29.578V31.552C80.3439 31.6547 80.3066 31.7433 80.2319 31.818C80.1572 31.8927 80.0686 31.93 79.9659 31.93H75.7659V32.812H79.6579C79.7606 32.812 79.8492 32.8493 79.9239 32.924C79.9986 32.9987 80.0359 33.0873 80.0359 33.19V35.01C80.0359 35.1127 79.9986 35.2013 79.9239 35.276C79.8492 35.3507 79.7606 35.388 79.6579 35.388H75.7659V36.27ZM88.4963 36.13H92.3743C92.4769 36.13 92.5656 36.1673 92.6403 36.242C92.7149 36.3167 92.7523 36.4053 92.7523 36.508V38.622C92.7523 38.7247 92.7149 38.8133 92.6403 38.888C92.5656 38.9627 92.4769 39 92.3743 39H85.3183C85.2156 39 85.1269 38.9627 85.0523 38.888C84.9776 38.8133 84.9403 38.7247 84.9403 38.622V29.578C84.9403 29.4753 84.9776 29.3867 85.0523 29.312C85.1269 29.2373 85.2156 29.2 85.3183 29.2H88.1183C88.2209 29.2 88.3096 29.2373 88.3843 29.312C88.4589 29.3867 88.4963 29.4753 88.4963 29.578V36.13Z" fill="white"/>
<path d="M36.0413 52.1C35.608 52.1 35.238 52.0533 34.9313 51.96C34.6313 51.86 34.3847 51.74 34.1913 51.6C34.0047 51.46 33.8647 51.3167 33.7713 51.17C33.678 51.0167 33.628 50.8867 33.6213 50.78C33.6147 50.7067 33.638 50.6467 33.6913 50.6C33.7447 50.5467 33.8013 50.52 33.8613 50.52H35.0013C35.0213 50.52 35.038 50.5233 35.0513 50.53C35.0647 50.5367 35.0847 50.55 35.1113 50.57C35.198 50.6167 35.2847 50.6767 35.3713 50.75C35.458 50.8167 35.558 50.8767 35.6713 50.93C35.7847 50.9833 35.9213 51.01 36.0813 51.01C36.268 51.01 36.4247 50.9733 36.5513 50.9C36.678 50.8267 36.7413 50.7167 36.7413 50.57C36.7413 50.4633 36.7113 50.3767 36.6513 50.31C36.5913 50.2367 36.468 50.1667 36.2813 50.1C36.1013 50.0333 35.828 49.9667 35.4613 49.9C35.1147 49.82 34.8113 49.7167 34.5513 49.59C34.2913 49.4567 34.0913 49.2867 33.9513 49.08C33.8113 48.8667 33.7413 48.61 33.7413 48.31C33.7413 48.0433 33.828 47.7867 34.0013 47.54C34.1747 47.2933 34.428 47.0933 34.7613 46.94C35.0947 46.78 35.5047 46.7 35.9913 46.7C36.378 46.7 36.7113 46.7467 36.9913 46.84C37.278 46.9267 37.518 47.04 37.7113 47.18C37.9113 47.32 38.0613 47.4633 38.1613 47.61C38.2613 47.7567 38.3147 47.89 38.3213 48.01C38.328 48.0767 38.308 48.1367 38.2613 48.19C38.2147 48.2367 38.1613 48.26 38.1013 48.26H37.0613C37.0347 48.26 37.008 48.2567 36.9813 48.25C36.9547 48.2367 36.9313 48.2233 36.9113 48.21C36.8313 48.17 36.7513 48.1167 36.6713 48.05C36.5913 47.9833 36.498 47.9233 36.3913 47.87C36.2847 47.8167 36.1513 47.79 35.9913 47.79C35.8113 47.79 35.6713 47.83 35.5713 47.91C35.4713 47.99 35.4213 48.0933 35.4213 48.22C35.4213 48.3067 35.448 48.3867 35.5013 48.46C35.5613 48.5333 35.678 48.6 35.8513 48.66C36.0313 48.72 36.308 48.7867 36.6813 48.86C37.1413 48.9333 37.508 49.0533 37.7813 49.22C38.0547 49.38 38.248 49.57 38.3613 49.79C38.4747 50.0033 38.5313 50.23 38.5313 50.47C38.5313 50.79 38.4347 51.0733 38.2413 51.32C38.0547 51.5667 37.7747 51.76 37.4013 51.9C37.028 52.0333 36.5747 52.1 36.0413 52.1ZM45.4594 52C45.0327 52 44.6627 51.9333 44.3494 51.8C44.0427 51.66 43.806 51.4467 43.6394 51.16C43.4727 50.8667 43.3894 50.49 43.3894 50.03V48.11H42.6094C42.536 48.11 42.4727 48.0867 42.4194 48.04C42.3727 47.9933 42.3494 47.9333 42.3494 47.86V47.05C42.3494 46.9767 42.3727 46.9167 42.4194 46.87C42.4727 46.8233 42.536 46.8 42.6094 46.8H43.3894V45.15C43.3894 45.0767 43.4127 45.0167 43.4594 44.97C43.5127 44.9233 43.5727 44.9 43.6394 44.9H44.7994C44.8727 44.9 44.9327 44.9233 44.9794 44.97C45.026 45.0167 45.0494 45.0767 45.0494 45.15V46.8H46.2994C46.3727 46.8 46.4327 46.8233 46.4794 46.87C46.526 46.9167 46.5494 46.9767 46.5494 47.05V47.86C46.5494 47.9333 46.526 47.9933 46.4794 48.04C46.4327 48.0867 46.3727 48.11 46.2994 48.11H45.0494V49.89C45.0494 50.1167 45.0927 50.2967 45.1794 50.43C45.266 50.5633 45.4127 50.63 45.6194 50.63H46.3894C46.4627 50.63 46.5227 50.6533 46.5694 50.7C46.616 50.7467 46.6394 50.8067 46.6394 50.88V51.75C46.6394 51.8233 46.616 51.8833 46.5694 51.93C46.5227 51.9767 46.4627 52 46.3894 52H45.4594ZM53.3273 52.1C52.7673 52.1 52.294 52.01 51.9073 51.83C51.5273 51.65 51.234 51.3933 51.0273 51.06C50.8273 50.72 50.714 50.3167 50.6873 49.85C50.6807 49.7167 50.6773 49.5667 50.6773 49.4C50.6773 49.2267 50.6807 49.0767 50.6873 48.95C50.714 48.4767 50.834 48.0733 51.0473 47.74C51.2607 47.4067 51.5573 47.15 51.9373 46.97C52.324 46.79 52.7873 46.7 53.3273 46.7C53.874 46.7 54.3373 46.79 54.7173 46.97C55.104 47.15 55.404 47.4067 55.6173 47.74C55.8307 48.0733 55.9507 48.4767 55.9773 48.95C55.984 49.0767 55.9873 49.2267 55.9873 49.4C55.9873 49.5667 55.984 49.7167 55.9773 49.85C55.9507 50.3167 55.834 50.72 55.6273 51.06C55.4273 51.3933 55.134 51.65 54.7473 51.83C54.3673 52.01 53.894 52.1 53.3273 52.1ZM53.3273 50.88C53.6273 50.88 53.844 50.79 53.9773 50.61C54.1173 50.43 54.1973 50.16 54.2173 49.8C54.224 49.7 54.2273 49.5667 54.2273 49.4C54.2273 49.2333 54.224 49.1 54.2173 49C54.1973 48.6467 54.1173 48.38 53.9773 48.2C53.844 48.0133 53.6273 47.92 53.3273 47.92C53.034 47.92 52.8173 48.0133 52.6773 48.2C52.5373 48.38 52.4607 48.6467 52.4473 49C52.4407 49.1 52.4373 49.2333 52.4373 49.4C52.4373 49.5667 52.4407 49.7 52.4473 49.8C52.4607 50.16 52.5373 50.43 52.6773 50.61C52.8173 50.79 53.034 50.88 53.3273 50.88ZM60.6209 52C60.5475 52 60.4875 51.9767 60.4409 51.93C60.3942 51.8833 60.3709 51.8233 60.3709 51.75V47.05C60.3709 46.9833 60.3942 46.9267 60.4409 46.88C60.4875 46.8267 60.5475 46.8 60.6209 46.8H61.7709C61.8442 46.8 61.9042 46.8267 61.9509 46.88C61.9975 46.9267 62.0209 46.9833 62.0209 47.05V47.45C62.2009 47.2433 62.4142 47.0833 62.6609 46.97C62.9142 46.8567 63.1975 46.8 63.5109 46.8H63.9509C64.0175 46.8 64.0742 46.8233 64.1209 46.87C64.1742 46.9167 64.2009 46.9767 64.2009 47.05V48.08C64.2009 48.1467 64.1742 48.2067 64.1209 48.26C64.0742 48.3067 64.0175 48.33 63.9509 48.33H62.9809C62.7075 48.33 62.4942 48.4067 62.3409 48.56C62.1942 48.7067 62.1209 48.9167 62.1209 49.19V51.75C62.1209 51.8233 62.0942 51.8833 62.0409 51.93C61.9942 51.9767 61.9342 52 61.8609 52H60.6209ZM69.2819 53.9C69.2219 53.9 69.1719 53.88 69.1319 53.84C69.0919 53.8 69.0719 53.75 69.0719 53.69C69.0719 53.6767 69.0719 53.6567 69.0719 53.63C69.0785 53.61 69.0885 53.5867 69.1019 53.56L69.8819 51.68L67.9619 47.14C67.9419 47.0933 67.9319 47.0533 67.9319 47.02C67.9452 46.96 67.9719 46.91 68.0119 46.87C68.0519 46.8233 68.1019 46.8 68.1619 46.8H69.3019C69.3885 46.8 69.4519 46.8233 69.4919 46.87C69.5385 46.91 69.5685 46.9567 69.5819 47.01L70.7319 49.92L71.9019 47.01C71.9285 46.9567 71.9619 46.91 72.0019 46.87C72.0485 46.8233 72.1152 46.8 72.2019 46.8H73.3219C73.3819 46.8 73.4319 46.8233 73.4719 46.87C73.5185 46.91 73.5419 46.9567 73.5419 47.01C73.5419 47.0433 73.5319 47.0867 73.5119 47.14L70.6819 53.69C70.6619 53.7433 70.6285 53.79 70.5819 53.83C70.5352 53.8767 70.4685 53.9 70.3819 53.9H69.2819Z" fill="white"/>
<line x1="3.92222" y1="14.003" x2="144.922" y2="3.00303" stroke="white" stroke-width="2"/>
<path fill-rule="evenodd" clip-rule="evenodd" d="M111.83 42.3313C111.202 41.612 110.55 40.9267 109.853 40.191C105.968 36.1069 100.729 30.5903 101.011 24.0344C101.23 18.8992 105.12 15.5287 110.158 13.9895C114.619 12.6702 119.381 12.6702 123.842 13.9895C128.88 15.5289 132.771 18.8995 132.989 24.0401C133.266 30.5963 128.027 36.1073 124.148 40.1968C123.444 40.9328 122.799 41.6125 122.165 42.3369L121.629 42.9493V43H112.407L111.83 42.3481L111.83 42.3313ZM118.268 16.8264V38.4553C122.303 30.1859 126.517 21.3047 121.45 17.2705C120.404 17.036 119.34 16.8874 118.268 16.8264ZM115.928 38.6011V16.815C114.852 16.8671 113.782 17.0063 112.729 17.2304C107.542 21.264 111.836 30.2583 115.928 38.5782V38.6011ZM125.87 19.0393C127.64 23.9042 124.908 30.5947 121.755 37.162C125.109 33.6228 129.323 28.9713 129.121 24.1847C129.029 21.9827 127.767 20.2529 125.87 19.0393ZM112.504 37.4374C109.27 30.7354 106.423 23.8817 108.296 18.9326C106.313 20.1629 104.976 21.9157 104.878 24.1854C104.67 29.1009 109.109 33.8645 112.504 37.4374Z" fill="white"/>
<path fill-rule="evenodd" clip-rule="evenodd" d="M121 45L120.615 48.7204V51.8215C120.615 53.0119 119.649 54 118.468 54H115.542C114.361 54 113.395 53.0178 113.395 51.8215V48.8454L113 45.0182H114.641L114.911 47.6132H119.089L119.359 45.0182L121 45Z" fill="white"/>
<line x1="6.92222" y1="70.003" x2="147.922" y2="59.003" stroke="white" stroke-width="2"/>
</svg>
