<svg width="83" height="82" viewBox="0 0 83 82" fill="none" xmlns="http://www.w3.org/2000/svg">
<path fill-rule="evenodd" clip-rule="evenodd" d="M37.1531 36.3535C36.564 35.6583 35.9534 34.9958 35.2996 34.2847C31.6575 30.3366 26.7457 25.0039 27.0103 18.6666C27.2154 13.7026 30.8629 10.4444 35.5861 8.95654C39.7678 7.68115 44.2324 7.68115 48.4143 8.95654C53.1375 10.4446 56.7849 13.7029 56.9901 18.6721C57.2494 25.0097 52.3375 30.3371 48.7008 34.2902C48.0416 35.0017 47.4364 35.6587 46.842 36.359L46.3396 36.951V37H37.6937L37.1533 36.3698L37.1531 36.3535ZM43.189 11.6988V32.6068C46.9714 24.613 50.9218 16.0279 46.1718 12.1282C45.191 11.9014 44.1934 11.7579 43.189 11.6988ZM40.9949 32.7477V11.6878C39.9858 11.7382 38.9829 11.8728 37.996 12.0894C33.1328 15.9885 37.1584 24.683 40.9949 32.7256V32.7477ZM50.316 13.838C51.975 18.5408 49.4135 25.0082 46.4576 31.3566C49.6026 27.9353 53.5526 23.4389 53.3636 18.8119C53.2773 16.6833 52.0938 15.0111 50.316 13.838ZM37.7847 31.6229C34.7531 25.1442 32.0836 18.5189 33.84 13.7348C31.9812 14.9242 30.7276 16.6185 30.6355 18.8125C30.4411 23.5642 34.6021 28.1691 37.7847 31.6229Z" fill="white"/>
<path fill-rule="evenodd" clip-rule="evenodd" d="M46 38L45.6148 41.307V44.0636C45.6148 45.1217 44.6493 46 43.4684 46H40.5416C39.361 46 38.3952 45.127 38.3952 44.0636V41.4182L38 38.0161H39.6411L39.9113 40.3229H44.0888L44.359 38.0161L46 38Z" fill="white"/>
<path d="M19.9822 50.7H25.2562C25.3222 50.7 25.3792 50.724 25.4272 50.772C25.4752 50.82 25.4992 50.877 25.4992 50.943V52.392C25.4992 52.458 25.4752 52.515 25.4272 52.563C25.3792 52.611 25.3222 52.635 25.2562 52.635H23.7622V56.757C23.7622 56.823 23.7382 56.88 23.6902 56.928C23.6422 56.976 23.5852 57 23.5192 57H21.7192C21.6532 57 21.5962 56.976 21.5482 56.928C21.5002 56.88 21.4762 56.823 21.4762 56.757V52.635H19.9822C19.9162 52.635 19.8592 52.611 19.8112 52.563C19.7632 52.515 19.7392 52.458 19.7392 52.392V50.943C19.7392 50.877 19.7632 50.82 19.8112 50.772C19.8592 50.724 19.9162 50.7 19.9822 50.7ZM33.952 56.703C33.97 56.739 33.979 56.778 33.979 56.82C33.979 56.862 33.958 56.904 33.916 56.946C33.88 56.982 33.835 57 33.781 57H31.936C31.75 57 31.621 56.919 31.549 56.757L30.775 55.038H30.406V56.757C30.406 56.823 30.382 56.88 30.334 56.928C30.286 56.976 30.229 57 30.163 57H28.399C28.333 57 28.276 56.976 28.228 56.928C28.18 56.88 28.156 56.823 28.156 56.757V50.943C28.156 50.877 28.18 50.82 28.228 50.772C28.276 50.724 28.333 50.7 28.399 50.7H31.063C31.927 50.7 32.602 50.895 33.088 51.285C33.574 51.669 33.817 52.224 33.817 52.95C33.817 53.67 33.493 54.237 32.845 54.651L33.952 56.703ZM30.406 52.374V53.328H31.063C31.195 53.328 31.297 53.286 31.369 53.202C31.441 53.112 31.477 53.001 31.477 52.869C31.477 52.737 31.441 52.623 31.369 52.527C31.303 52.425 31.201 52.374 31.063 52.374H30.406ZM38.6067 50.7H40.5597C40.7757 50.7 40.9107 50.799 40.9647 50.997L42.9717 56.739C42.9777 56.757 42.9807 56.787 42.9807 56.829C42.9807 56.865 42.9597 56.904 42.9177 56.946C42.8817 56.982 42.8367 57 42.7827 57H41.1177C40.9377 57 40.8207 56.925 40.7667 56.775L40.5507 56.181H38.6157L38.3997 56.775C38.3457 56.925 38.2287 57 38.0487 57H36.3837C36.3297 57 36.2817 56.982 36.2397 56.946C36.2037 56.904 36.1857 56.865 36.1857 56.829C36.1857 56.787 36.1887 56.757 36.1947 56.739L38.2017 50.997C38.2557 50.799 38.3907 50.7 38.6067 50.7ZM39.0747 54.426H40.0917L39.5787 52.752L39.0747 54.426ZM49.4441 50.7H51.1181C51.1721 50.7 51.2171 50.721 51.2531 50.763C51.2951 50.799 51.3161 50.835 51.3161 50.871C51.3161 50.907 51.3131 50.937 51.3071 50.961L49.6151 56.703C49.5611 56.901 49.4261 57 49.2101 57H47.1581C46.9421 57 46.8071 56.901 46.7531 56.703L45.0611 50.961C45.0551 50.937 45.0521 50.907 45.0521 50.871C45.0521 50.835 45.0701 50.799 45.1061 50.763C45.1481 50.721 45.1961 50.7 45.2501 50.7H46.9241C47.1401 50.7 47.2751 50.799 47.3291 50.997L48.1841 54.345L49.0391 50.997C49.0931 50.799 49.2281 50.7 49.4441 50.7ZM55.9924 55.245H58.7644C58.8304 55.245 58.8874 55.269 58.9354 55.317C58.9834 55.365 59.0074 55.422 59.0074 55.488V56.757C59.0074 56.823 58.9834 56.88 58.9354 56.928C58.8874 56.976 58.8304 57 58.7644 57H54.0754C54.0094 57 53.9524 56.976 53.9044 56.928C53.8564 56.88 53.8324 56.823 53.8324 56.757V50.943C53.8324 50.877 53.8564 50.82 53.9044 50.772C53.9524 50.724 54.0094 50.7 54.0754 50.7H58.6924C58.7584 50.7 58.8154 50.724 58.8634 50.772C58.9114 50.82 58.9354 50.877 58.9354 50.943V52.212C58.9354 52.278 58.9114 52.335 58.8634 52.383C58.8154 52.431 58.7584 52.455 58.6924 52.455H55.9924V53.022H58.4944C58.5604 53.022 58.6174 53.046 58.6654 53.094C58.7134 53.142 58.7374 53.199 58.7374 53.265V54.435C58.7374 54.501 58.7134 54.558 58.6654 54.606C58.6174 54.654 58.5604 54.678 58.4944 54.678H55.9924V55.245ZM64.1762 55.155H66.6692C66.7352 55.155 66.7922 55.179 66.8402 55.227C66.8882 55.275 66.9122 55.332 66.9122 55.398V56.757C66.9122 56.823 66.8882 56.88 66.8402 56.928C66.7922 56.976 66.7352 57 66.6692 57H62.1332C62.0672 57 62.0102 56.976 61.9622 56.928C61.9142 56.88 61.8902 56.823 61.8902 56.757V50.943C61.8902 50.877 61.9142 50.82 61.9622 50.772C62.0102 50.724 62.0672 50.7 62.1332 50.7H63.9332C63.9992 50.7 64.0562 50.724 64.1042 50.772C64.1522 50.82 64.1762 50.877 64.1762 50.943V55.155Z" fill="white"/>
<path d="M29.2789 66.07C28.9756 66.07 28.7166 66.0373 28.5019 65.972C28.2919 65.902 28.1193 65.818 27.9839 65.72C27.8533 65.622 27.7553 65.5217 27.6899 65.419C27.6246 65.3117 27.5896 65.2207 27.5849 65.146C27.5803 65.0947 27.5966 65.0527 27.6339 65.02C27.6713 64.9827 27.7109 64.964 27.7529 64.964H28.5509C28.5649 64.964 28.5766 64.9663 28.5859 64.971C28.5953 64.9757 28.6093 64.985 28.6279 64.999C28.6886 65.0317 28.7493 65.0737 28.8099 65.125C28.8706 65.1717 28.9406 65.2137 29.0199 65.251C29.0993 65.2883 29.1949 65.307 29.3069 65.307C29.4376 65.307 29.5473 65.2813 29.6359 65.23C29.7246 65.1787 29.7689 65.1017 29.7689 64.999C29.7689 64.9243 29.7479 64.8637 29.7059 64.817C29.6639 64.7657 29.5776 64.7167 29.4469 64.67C29.3209 64.6233 29.1296 64.5767 28.8729 64.53C28.6303 64.474 28.4179 64.4017 28.2359 64.313C28.0539 64.2197 27.9139 64.1007 27.8159 63.956C27.7179 63.8067 27.6689 63.627 27.6689 63.417C27.6689 63.2303 27.7296 63.0507 27.8509 62.878C27.9723 62.7053 28.1496 62.5653 28.3829 62.458C28.6163 62.346 28.9033 62.29 29.2439 62.29C29.5146 62.29 29.7479 62.3227 29.9439 62.388C30.1446 62.4487 30.3126 62.528 30.4479 62.626C30.5879 62.724 30.6929 62.8243 30.7629 62.927C30.8329 63.0297 30.8703 63.123 30.8749 63.207C30.8796 63.2537 30.8656 63.2957 30.8329 63.333C30.8003 63.3657 30.7629 63.382 30.7209 63.382H29.9929C29.9743 63.382 29.9556 63.3797 29.9369 63.375C29.9183 63.3657 29.9019 63.3563 29.8879 63.347C29.8319 63.319 29.7759 63.2817 29.7199 63.235C29.6639 63.1883 29.5986 63.1463 29.5239 63.109C29.4493 63.0717 29.3559 63.053 29.2439 63.053C29.1179 63.053 29.0199 63.081 28.9499 63.137C28.8799 63.193 28.8449 63.2653 28.8449 63.354C28.8449 63.4147 28.8636 63.4707 28.9009 63.522C28.9429 63.5733 29.0246 63.62 29.1459 63.662C29.2719 63.704 29.4656 63.7507 29.7269 63.802C30.0489 63.8533 30.3056 63.9373 30.4969 64.054C30.6883 64.166 30.8236 64.299 30.9029 64.453C30.9823 64.6023 31.0219 64.761 31.0219 64.929C31.0219 65.153 30.9543 65.3513 30.8189 65.524C30.6883 65.6967 30.4923 65.832 30.2309 65.93C29.9696 66.0233 29.6523 66.07 29.2789 66.07ZM35.8716 66C35.5729 66 35.3139 65.9533 35.0946 65.86C34.8799 65.762 34.7142 65.6127 34.5976 65.412C34.4809 65.2067 34.4226 64.943 34.4226 64.621V63.277H33.8766C33.8252 63.277 33.7809 63.2607 33.7436 63.228C33.7109 63.1953 33.6946 63.1533 33.6946 63.102V62.535C33.6946 62.4837 33.7109 62.4417 33.7436 62.409C33.7809 62.3763 33.8252 62.36 33.8766 62.36H34.4226V61.205C34.4226 61.1537 34.4389 61.1117 34.4716 61.079C34.5089 61.0463 34.5509 61.03 34.5976 61.03H35.4096C35.4609 61.03 35.5029 61.0463 35.5356 61.079C35.5682 61.1117 35.5846 61.1537 35.5846 61.205V62.36H36.4596C36.5109 62.36 36.5529 62.3763 36.5856 62.409C36.6182 62.4417 36.6346 62.4837 36.6346 62.535V63.102C36.6346 63.1533 36.6182 63.1953 36.5856 63.228C36.5529 63.2607 36.5109 63.277 36.4596 63.277H35.5846V64.523C35.5846 64.6817 35.6149 64.8077 35.6756 64.901C35.7362 64.9943 35.8389 65.041 35.9836 65.041H36.5226C36.5739 65.041 36.6159 65.0573 36.6486 65.09C36.6812 65.1227 36.6976 65.1647 36.6976 65.216V65.825C36.6976 65.8763 36.6812 65.9183 36.6486 65.951C36.6159 65.9837 36.5739 66 36.5226 66H35.8716ZM41.3791 66.07C40.9871 66.07 40.6558 66.007 40.3851 65.881C40.1191 65.755 39.9138 65.5753 39.7691 65.342C39.6291 65.104 39.5498 64.8217 39.5311 64.495C39.5265 64.4017 39.5241 64.2967 39.5241 64.18C39.5241 64.0587 39.5265 63.9537 39.5311 63.865C39.5498 63.5337 39.6338 63.2513 39.7831 63.018C39.9325 62.7847 40.1401 62.605 40.4061 62.479C40.6768 62.353 41.0011 62.29 41.3791 62.29C41.7618 62.29 42.0861 62.353 42.3521 62.479C42.6228 62.605 42.8328 62.7847 42.9821 63.018C43.1315 63.2513 43.2155 63.5337 43.2341 63.865C43.2388 63.9537 43.2411 64.0587 43.2411 64.18C43.2411 64.2967 43.2388 64.4017 43.2341 64.495C43.2155 64.8217 43.1338 65.104 42.9891 65.342C42.8491 65.5753 42.6438 65.755 42.3731 65.881C42.1071 66.007 41.7758 66.07 41.3791 66.07ZM41.3791 65.216C41.5891 65.216 41.7408 65.153 41.8341 65.027C41.9321 64.901 41.9881 64.712 42.0021 64.46C42.0068 64.39 42.0091 64.2967 42.0091 64.18C42.0091 64.0633 42.0068 63.97 42.0021 63.9C41.9881 63.6527 41.9321 63.466 41.8341 63.34C41.7408 63.2093 41.5891 63.144 41.3791 63.144C41.1738 63.144 41.0221 63.2093 40.9241 63.34C40.8261 63.466 40.7725 63.6527 40.7631 63.9C40.7585 63.97 40.7561 64.0633 40.7561 64.18C40.7561 64.2967 40.7585 64.39 40.7631 64.46C40.7725 64.712 40.8261 64.901 40.9241 65.027C41.0221 65.153 41.1738 65.216 41.3791 65.216ZM46.4846 66C46.4333 66 46.3913 65.9837 46.3586 65.951C46.3259 65.9183 46.3096 65.8763 46.3096 65.825V62.535C46.3096 62.4883 46.3259 62.4487 46.3586 62.416C46.3913 62.3787 46.4333 62.36 46.4846 62.36H47.2896C47.3409 62.36 47.3829 62.3787 47.4156 62.416C47.4483 62.4487 47.4646 62.4883 47.4646 62.535V62.815C47.5906 62.6703 47.7399 62.5583 47.9126 62.479C48.0899 62.3997 48.2883 62.36 48.5076 62.36H48.8156C48.8623 62.36 48.9019 62.3763 48.9346 62.409C48.9719 62.4417 48.9906 62.4837 48.9906 62.535V63.256C48.9906 63.3027 48.9719 63.3447 48.9346 63.382C48.9019 63.4147 48.8623 63.431 48.8156 63.431H48.1366C47.9453 63.431 47.7959 63.4847 47.6886 63.592C47.5859 63.6947 47.5346 63.8417 47.5346 64.033V65.825C47.5346 65.8763 47.5159 65.9183 47.4786 65.951C47.4459 65.9837 47.4039 66 47.3526 66H46.4846ZM52.5473 67.33C52.5053 67.33 52.4703 67.316 52.4423 67.288C52.4143 67.26 52.4003 67.225 52.4003 67.183C52.4003 67.1737 52.4003 67.1597 52.4003 67.141C52.405 67.127 52.412 67.1107 52.4213 67.092L52.9673 65.776L51.6233 62.598C51.6093 62.5653 51.6023 62.5373 51.6023 62.514C51.6116 62.472 51.6303 62.437 51.6583 62.409C51.6863 62.3763 51.7213 62.36 51.7633 62.36H52.5613C52.622 62.36 52.6663 62.3763 52.6943 62.409C52.727 62.437 52.748 62.4697 52.7573 62.507L53.5623 64.544L54.3813 62.507C54.4 62.4697 54.4233 62.437 54.4513 62.409C54.484 62.3763 54.5306 62.36 54.5913 62.36H55.3753C55.4173 62.36 55.4523 62.3763 55.4803 62.409C55.513 62.437 55.5293 62.4697 55.5293 62.507C55.5293 62.5303 55.5223 62.5607 55.5083 62.598L53.5273 67.183C53.5133 67.2203 53.49 67.253 53.4573 67.281C53.4246 67.3137 53.378 67.33 53.3173 67.33H52.5473Z" fill="white"/>
<circle cx="42" cy="40" r="38.5" stroke="white" stroke-width="3"/>
</svg>
